# xmcd
#
# Track frame offsets:
#	150
#	16897
#	28351
#	43346
#	58268
#	76793
#	96713
#	116504
#	131364
#	150638
#	165332
#	181556
#	194839
#	210131
#	224457
#	240333
#	256615
#	275836
#	293064
#	313609
#
# Disc length: 4456 seconds
#
# Revision: 3
# Processed by: cddbd v1.5.2PL0 Copyright (c) Steve Scherf et al.
# Submitted via: audiograbber 1.83.01
#
DISCID=18116614
DTITLE=Bellamy Brothers - The 25 Year Collection CD2
DYEAR=2001
DGENRE=Country
TTITLE0=For All The Wrong Reasons
TTITLE1=Country Rap
TTITLE2=Dancin' Cowboys
TTITLE3=Lovers Live Longer
TTITLE4=Old Hippie (The Sequel) - Live
TTITLE5=We Dared The Lightning
TTITLE6=Desperadoes In Love
TTITLE7=Big Love
TTITLE8=Almost Jamaica
TTITLE9=Kids Of The Baby Boom - Live
TTITLE10=Forget About Me
TTITLE11=You're My Favorite Star
TTITLE12=You'll Never Be Sorry
TTITLE13=Big Hair
TTITLE14=Rip Off The Knob
TTITLE15=Catahoula
TTITLE16=World's Greatest Lover
TTITLE17=Some Broken Hearts
TTITLE18=Big Hat, No Cattle
TTITLE19=Santa Fe - Live
EXTD=
EXTT0=
EXTT1=
EXTT2=
EXTT3=
EXTT4=
EXTT5=
EXTT6=
EXTT7=
EXTT8=
EXTT9=
EXTT10=
EXTT11=
EXTT12=
EXTT13=
EXTT14=
EXTT15=
EXTT16=
EXTT17=
EXTT18=
EXTT19=
PLAYORDER=
